<?xml version="1.0" encoding="UTF-8"?>
<!-- Created with Inkscape (http://www.inkscape.org/) -->
<svg version="1.1" viewBox="0 0 235 380" xmlns="http://www.w3.org/2000/svg" xmlns:cc="http://creativecommons.org/ns#" xmlns:dc="http://purl.org/dc/elements/1.1/" xmlns:rdf="http://www.w3.org/1999/02/22-rdf-syntax-ns#">
 <metadata>
  <rdf:RDF>
   <cc:Work rdf:about="">
    <dc:format>image/svg+xml</dc:format>
    <dc:type rdf:resource="http://purl.org/dc/dcmitype/StillImage"/>
    <dc:title/>
    <cc:license rdf:resource=""/>
   </cc:Work>
  </rdf:RDF>
 </metadata>
 <g transform="translate(307.68 -470.82)" stroke="#000">
  <path d="m-75.696 847.81v-373.98h-228.98v373.98z" fill="none" stroke-width="6.0249"/>
  <g fill="#fff" fill-rule="evenodd" stroke-width="2.1476px">
   <rect id="r02p10_demo_sm_cri_epita_net" class="computer" x="-170.45" y="513.79" width="39.31" height="21.311"/>
   <rect id="r02p09_demo_sm_cri_epita_net" class="computer" x="-170.45" y="544.04" width="39.31" height="21.311"/>
   <rect id="r02p08_demo_sm_cri_epita_net" class="computer" x="-170.45" y="574.28" width="39.31" height="21.311"/>
   <rect id="r02p07_demo_sm_cri_epita_net" class="computer" x="-170.45" y="604.53" width="39.31" height="21.311"/>
   <rect id="r02p06_demo_sm_cri_epita_net" class="computer" x="-170.45" y="634.77" width="39.31" height="21.311"/>
   <rect id="r02p05_demo_sm_cri_epita_net" class="computer" x="-170.45" y="665.01" width="39.31" height="21.311"/>
   <rect id="r02p04_demo_sm_cri_epita_net" class="computer" x="-170.45" y="695.26" width="39.31" height="21.311"/>
   <rect id="r02p03_demo_sm_cri_epita_net" class="computer" x="-170.45" y="725.5" width="39.31" height="21.311"/>
   <rect id="r02p02_demo_sm_cri_epita_net" class="computer" x="-170.45" y="755.74" width="39.31" height="21.311"/>
   <rect id="r02p01_demo_sm_cri_epita_net" class="computer" x="-170.45" y="785.99" width="39.31" height="21.311"/>
   <rect id="r01p10_demo_sm_cri_epita_net" class="computer" x="-254.79" y="513.79" width="39.31" height="21.311"/>
   <rect id="r01p09_demo_sm_cri_epita_net" class="computer" x="-254.79" y="546.04" width="39.31" height="21.311"/>
   <rect id="r01p08_demo_sm_cri_epita_net" class="computer" x="-254.79" y="574.28" width="39.31" height="21.311"/>
   <rect id="r01p07_demo_sm_cri_epita_net" class="computer" x="-254.79" y="604.53" width="39.31" height="21.311"/>
   <rect id="r01p06_demo_sm_cri_epita_net" class="computer" x="-254.79" y="634.77" width="39.31" height="21.311"/>
   <rect id="r01p05_demo_sm_cri_epita_net" class="computer" x="-254.79" y="665.01" width="39.31" height="21.311"/>
   <rect id="r01p04_demo_sm_cri_epita_net" class="computer" x="-254.79" y="695.26" width="39.31" height="21.311"/>
   <rect id="r01p03_demo_sm_cri_epita_net" class="computer" x="-254.79" y="725.5" width="39.31" height="21.311"/>
   <rect id="r01p02_demo_sm_cri_epita_net" class="computer" x="-254.79" y="755.74" width="39.31" height="21.311"/>
   <rect id="r01p01_demo_sm_cri_epita_net" class="computer" x="-254.79" y="785.99" width="39.31" height="21.311"/>
  </g>
 </g>
</svg>
